<svg width="50" height="55" viewBox="0 0 50 55" fill="none" xmlns="http://www.w3.org/2000/svg">
<path d="M38.9821 5.9226L39.3853 5.20925L39.8055 4.45658C39.842 4.33501 39.7305 4.32607 39.669 4.29031C38.4665 3.59128 37.2247 2.97179 35.9402 2.43723C32.4763 0.997143 28.8714 0.192623 25.1274 0.00132616C24.9419 -0.00850686 24.8911 0.0335107 24.8928 0.22302C24.9009 1.4879 24.9009 2.75279 24.8928 4.01767C24.8919 4.20361 24.9473 4.25366 25.1266 4.26171C26.1961 4.30909 27.2595 4.43244 28.313 4.61748C31.5994 5.19584 34.6886 6.32664 37.5967 7.9625C37.743 8.04474 37.7368 8.10821 37.6618 8.23336C37.3773 8.71339 37.0963 9.19431 36.8287 9.68417C36.743 9.8415 36.685 9.86921 36.5182 9.77356C32.9776 7.74617 29.1756 6.58677 25.1007 6.33647C24.9241 6.32575 24.8937 6.37491 24.8946 6.5385C24.9009 7.81053 24.9009 9.08346 24.8946 10.3555C24.8937 10.5236 24.9339 10.5852 25.1114 10.5951C25.8607 10.638 26.6038 10.7372 27.3433 10.8677C29.8393 11.3075 32.1881 12.1576 34.3942 13.4073C34.5298 13.4842 34.5771 13.5432 34.4879 13.6943C34.1837 14.2136 33.8884 14.7392 33.5967 15.2658C33.5325 15.382 33.4691 15.3882 33.371 15.3194C33.3166 15.281 33.2551 15.2532 33.1962 15.2211C30.4674 13.6925 27.5441 12.7798 24.4334 12.4866C21.329 12.1943 18.2933 12.5536 15.3388 13.5494C10.7581 15.0941 7.00785 17.8071 4.19071 21.743C0.85082 26.4101 -0.485496 31.6377 0.155899 37.34C0.690245 42.0929 2.63673 46.2317 5.81515 49.7886C7.3165 51.4692 9.05245 52.8708 10.9891 54.0222C11.1319 54.1071 11.197 54.0955 11.279 53.9471C11.5484 53.459 11.8321 52.9781 12.1105 52.4954C12.2523 52.2495 12.2514 52.2522 12.5056 52.3926C17.1711 54.967 22.1025 55.6795 27.2595 54.3315C32.9642 52.8395 37.3318 49.5106 40.1213 44.2857C43.363 38.2142 43.3862 32.0114 40.4495 25.8166C38.7341 22.1989 36.0811 19.3983 32.6592 17.3316C32.4816 17.2243 32.462 17.1465 32.5717 16.9749C32.8625 16.5172 33.14 16.0497 33.4112 15.5795C33.4923 15.4392 33.5485 15.4124 33.6957 15.5035C34.4094 15.946 35.1114 16.4064 35.7832 16.9105C37.7314 18.373 39.396 20.1099 40.7787 22.1167C40.8831 22.2687 40.9544 22.3035 41.1266 22.1998C42.2149 21.5455 43.3113 20.9036 44.4076 20.26C44.5245 20.1921 44.5923 20.1519 44.4879 19.9981C43.3095 18.2711 41.9652 16.688 40.4326 15.2666C39.016 13.9526 37.4745 12.8066 35.7983 11.8448C35.6948 11.7858 35.586 11.7509 35.6868 11.5837C35.9937 11.0742 36.2863 10.5557 36.5798 10.0391C36.6324 9.94609 36.6672 9.9148 36.7787 9.98005C38.7314 11.1207 40.528 12.4678 42.1641 14.0313C43.719 15.5169 45.0847 17.16 46.2578 18.9621C46.3461 19.0979 46.4085 19.14 46.5673 19.0443C47.6699 18.3837 48.7779 17.7321 49.8867 17.0831C50.0098 17.0107 50.0357 16.9588 49.9491 16.8292C47.2239 12.6958 43.801 9.27744 39.5807 6.67884C39.3487 6.53582 39.1275 6.37134 38.8652 6.28105C38.8438 6.26943 38.8135 6.26586 38.8073 6.24977L38.9821 5.91812V5.9226ZM33.8206 23.4772C36.1703 25.9033 37.6342 28.7933 38.173 32.1231C38.8527 36.3263 37.9669 40.205 35.5887 43.7359C34.0213 46.0628 31.9687 47.8417 29.4566 49.0717C27.0052 50.2722 24.4067 50.8398 21.6743 50.7192C19.123 50.6065 16.7331 49.92 14.5146 48.6444C14.4833 48.6265 14.4566 48.6006 14.428 48.5782C14.3478 48.6292 14.3192 48.7177 14.2746 48.7937C13.99 49.2817 13.7037 49.7689 13.4289 50.2633C13.3504 50.4045 13.2915 50.4322 13.1417 50.3437C11.3058 49.2594 9.7108 47.8953 8.36824 46.2353C6.74379 44.2276 5.64566 41.9597 4.96859 39.4702C4.43424 37.5063 4.19784 35.5182 4.32095 33.4863C4.4833 30.8064 5.2032 28.2847 6.5074 25.9417C8.85263 21.7278 12.3379 18.8602 16.9106 17.3924C21.767 15.8334 26.4807 16.2893 30.9928 18.6948C31.4272 18.9263 31.4245 18.9281 31.1748 19.3643C30.9009 19.8417 30.6315 20.3199 30.3594 20.7982C31.6306 21.5383 32.7956 22.4179 33.8197 23.4754L33.8206 23.4772Z" fill="#1C461D"/>
<path d="M23.2023 33.2503C23.7563 33.3942 24.3281 33.4255 24.8883 33.5355C25.9534 33.7446 27.007 33.9869 27.9659 34.5295C29.3121 35.2902 29.9936 36.472 30.2148 37.9764C30.4084 39.2932 30.1809 40.508 29.4539 41.6218C28.7626 42.6802 27.8196 43.4579 26.7117 44.0434C26.0792 44.3777 25.4155 44.6343 24.717 44.7943C24.5823 44.8256 24.5395 44.8873 24.5413 45.0231C24.5467 45.7293 24.5386 46.4364 24.5475 47.1426C24.5502 47.3187 24.4994 47.3696 24.3219 47.3687C23.0382 47.3616 21.7536 47.3607 20.4699 47.3687C20.2683 47.3705 20.2219 47.3053 20.2246 47.114C20.2353 46.4221 20.2264 45.7311 20.2309 45.0392C20.2309 44.915 20.2166 44.8327 20.0712 44.7988C19.0926 44.5699 18.1871 44.1694 17.3575 43.6C17.3343 43.5839 17.3031 43.5795 17.2754 43.5705C16.7161 43.1271 16.1764 42.6641 15.7366 42.0947C14.9935 41.1328 14.5038 40.0691 14.4048 38.8417C14.3896 38.6486 14.4199 38.5682 14.6447 38.57C16.0471 38.5807 17.4494 38.5789 18.8508 38.5709C19.0292 38.57 19.0881 38.6263 19.1184 38.7988C19.1746 39.1242 19.2567 39.4469 19.4717 39.7142C19.5689 39.9985 19.7723 40.2041 19.9873 40.3962C20.5243 40.8781 21.1764 41.0872 21.8776 41.1507C23.0382 41.2553 24.0926 40.988 24.9668 40.1808C25.3549 39.8224 25.6287 39.387 25.6091 38.8346C25.5788 37.972 25.1336 37.3891 24.3531 37.0477C23.403 36.632 22.3888 36.4997 21.3745 36.3701C20.701 36.2574 20.0221 36.1788 19.3531 36.0393C18.5297 35.8686 17.7197 35.6567 16.9605 35.2822C15.3459 34.4866 14.5877 33.1439 14.4217 31.3883C14.2317 29.3761 15.0774 27.8404 16.5493 26.5808C17.5154 25.7549 18.6296 25.2078 19.8615 24.9119C20.1006 24.8547 20.1595 24.7555 20.1532 24.5222C20.1363 23.8526 20.1515 23.1831 20.1443 22.5136C20.1425 22.3625 20.1827 22.3053 20.3433 22.3062C21.6582 22.3115 22.9722 22.3115 24.2871 22.3062C24.436 22.3062 24.4771 22.3571 24.4762 22.5001C24.4708 23.2144 24.4753 23.9286 24.4717 24.6428C24.4717 24.7582 24.4833 24.835 24.6198 24.869C25.5592 25.0978 26.4334 25.4787 27.2389 26.0168C27.2692 26.0365 27.3067 26.0445 27.3406 26.0588C27.6109 26.2876 27.891 26.5058 28.1506 26.7462C29.2666 27.7832 30.0204 29.023 30.2407 30.5552C30.3174 31.0888 30.321 31.0879 29.7858 31.0879C28.4798 31.0879 27.1738 31.0853 25.8687 31.0915C25.6876 31.0915 25.5975 31.0638 25.5618 30.8537C25.5012 30.498 25.3986 30.1467 25.1515 29.8624C25.0641 29.6604 24.9133 29.5075 24.759 29.3573C24.1533 28.7682 23.3986 28.5618 22.585 28.5242C21.3887 28.4688 20.3325 28.8067 19.527 29.7283C18.7839 30.5784 18.9846 31.7807 19.9374 32.3895C20.2469 32.5879 20.5823 32.7229 20.9329 32.8248C21.676 33.0402 22.4334 33.177 23.2023 33.2503Z" fill="white"/>
<path d="M35.5879 43.7359C34.0205 46.0628 31.9679 47.8417 29.4558 49.0717C27.0045 50.2722 24.4059 50.8398 21.6735 50.7192C19.1222 50.6065 16.7323 49.92 14.5138 48.6444C14.4826 48.6265 14.4558 48.6006 14.4272 48.5791C14.6503 48.1098 14.9259 47.67 15.181 47.2195C15.8501 46.0369 16.5254 44.8578 17.1989 43.6778C17.2203 43.6403 17.2497 43.6063 17.2756 43.5706C17.3033 43.5804 17.3345 43.5849 17.3577 43.6001C18.1873 44.1695 19.0927 44.5691 20.0713 44.7988C20.2176 44.8328 20.2319 44.915 20.231 45.0393C20.2274 45.7311 20.2355 46.4221 20.2248 47.114C20.2221 47.3053 20.2685 47.3706 20.4701 47.3688C21.7538 47.3598 23.0383 47.3607 24.322 47.3688C24.4995 47.3697 24.5495 47.3178 24.5477 47.1426C24.5388 46.4364 24.5477 45.7294 24.5415 45.0232C24.5406 44.8873 24.5825 44.8256 24.7172 44.7943C25.4157 44.6343 26.0794 44.3787 26.7119 44.0434C27.8198 43.457 28.7627 42.6802 29.4541 41.6218C30.1811 40.508 30.4086 39.2932 30.215 37.9765C29.9938 36.472 29.3122 35.2903 27.9661 34.5295C27.0071 33.9869 25.9536 33.7447 24.8885 33.5355C24.3292 33.4256 23.7565 33.3943 23.2025 33.2504C23.4639 32.7855 23.7208 32.3189 23.9875 31.8576C24.372 31.1908 24.7636 30.5275 25.1516 29.8624C25.3987 30.1467 25.5013 30.4989 25.562 30.8538C25.5977 31.0647 25.6878 31.0925 25.8689 31.0916C27.1748 31.0853 28.4808 31.088 29.7859 31.088C30.3212 31.088 30.3185 31.088 30.2409 30.5552C30.0196 29.0231 29.2658 27.7841 28.1508 26.7463C27.8921 26.5058 27.6111 26.2877 27.3408 26.0588C27.4683 25.7576 27.6521 25.4876 27.8136 25.2052C28.6298 23.7758 29.4496 22.3491 30.2694 20.9224C30.2944 20.8786 30.3292 20.8402 30.3586 20.7991C31.6298 21.5392 32.7948 22.4188 33.8189 23.4763C36.1686 25.9024 37.6325 28.7924 38.1713 32.1222C38.8511 36.3254 37.9652 40.2041 35.587 43.735L35.5879 43.7359ZM19.9875 40.3963C20.5245 40.8781 21.1766 41.0873 21.8778 41.1507C23.0383 41.2553 24.0928 40.9881 24.967 40.1808C25.355 39.8224 25.6289 39.3871 25.6093 38.8346C25.5789 37.972 25.1338 37.3892 24.3532 37.0477C23.4032 36.632 22.3889 36.4997 21.3746 36.3701C21.3336 36.4479 21.2944 36.5274 21.2506 36.6043C20.6583 37.6412 20.0651 38.6773 19.4719 39.7142C19.5691 39.9985 19.7725 40.2041 19.9875 40.3963Z" fill="#2564EA"/>
<path d="M31.1748 19.3652C30.9009 19.8426 30.6315 20.3208 30.3595 20.7991C30.3291 20.8402 30.2952 20.8786 30.2702 20.9224C29.4504 22.35 28.6306 23.7767 27.8144 25.2052C27.6529 25.4876 27.4701 25.7576 27.3416 26.058C27.3077 26.0445 27.2693 26.0365 27.2399 26.0159C26.4344 25.4778 25.5601 25.097 24.6208 24.8682C24.4843 24.8351 24.4718 24.7573 24.4727 24.642C24.4763 23.9278 24.4709 23.2135 24.4772 22.4993C24.4781 22.3563 24.437 22.3044 24.2881 22.3053C22.9732 22.3098 21.6592 22.3107 20.3442 22.3053C20.1837 22.3053 20.1435 22.3616 20.1453 22.5127C20.1516 23.1822 20.1373 23.8527 20.1542 24.5213C20.1596 24.7546 20.1016 24.853 19.8625 24.9111C18.6306 25.2069 17.5155 25.7531 16.5503 26.58C15.0775 27.8395 14.2318 29.3753 14.4227 31.3874C14.5887 33.1422 15.3478 34.4848 16.9615 35.2813C17.7207 35.6559 18.5307 35.8677 19.3541 36.0385C20.0231 36.1779 20.702 36.2566 21.3755 36.3692C21.3344 36.447 21.2952 36.5265 21.2515 36.6034C20.6592 37.6404 20.0659 38.6764 19.4727 39.7133C19.2577 39.4461 19.1756 39.1234 19.1194 38.798C19.09 38.6263 19.0302 38.5691 18.8518 38.57C17.4495 38.5781 16.0472 38.5799 14.6457 38.5691C14.4209 38.5673 14.3906 38.6478 14.4058 38.8409C14.5048 40.0682 14.9945 41.132 15.7376 42.0938C16.1774 42.6632 16.7171 43.1263 17.2764 43.5697C17.2506 43.6054 17.2211 43.6394 17.1997 43.6769C16.5262 44.8569 15.8518 46.036 15.1819 47.2186C14.9267 47.67 14.6502 48.1089 14.4272 48.5782C14.3478 48.6292 14.3184 48.7177 14.2746 48.7937C13.9901 49.2818 13.7037 49.7689 13.429 50.2633C13.3505 50.4045 13.2916 50.4322 13.1417 50.3437C11.3059 49.2594 9.71084 47.8953 8.36829 46.2353C6.74473 44.2276 5.64571 41.9597 4.96863 39.4702C4.43429 37.5063 4.19789 35.5182 4.32099 33.4863C4.48335 30.8064 5.20325 28.2847 6.50744 25.9417C8.85357 21.7278 12.338 18.8602 16.9107 17.3924C21.7671 15.8334 26.4808 16.2893 30.9928 18.6948C31.4273 18.9263 31.4246 18.9281 31.1748 19.3643V19.3652ZM24.7591 29.3574C24.1534 28.7683 23.3987 28.5618 22.5851 28.5243C21.3889 28.4688 20.3327 28.8067 19.5271 29.7284C18.784 30.5785 18.9847 31.7808 19.9375 32.3895C20.247 32.588 20.5824 32.7229 20.933 32.8249C21.6761 33.0403 22.4335 33.1771 23.2024 33.2504C23.4638 32.7855 23.7207 32.3189 23.9874 31.8576C24.3719 31.1908 24.7635 30.5275 25.1516 29.8624C25.0642 29.6604 24.9134 29.5076 24.7591 29.3574Z" fill="#15B883"/>
</svg>
