<svg width="41" height="40" viewBox="0 0 41 40" fill="none" xmlns="http://www.w3.org/2000/svg">
<circle cx="20.5" cy="20" r="20" fill="#717BBC"/>
<path d="M13.8333 16.6667H25.9166C26.6069 16.6667 27.1666 17.2264 27.1666 17.9167V25.4167C27.1666 26.1071 26.6069 26.6667 25.9166 26.6667H15.0833C14.3929 26.6667 13.8333 26.1071 13.8333 25.4167V16.6667ZM13.8333 16.6667V14.5834C13.8333 13.893 14.3929 13.3334 15.0833 13.3334H23.8333C24.5236 13.3334 25.0833 13.893 25.0833 14.5834V16.6667M27.1666 20H24.4583C23.7679 20 23.2083 20.5597 23.2083 21.25V22.0834C23.2083 22.7737 23.7679 23.3334 24.4583 23.3334H27.1666" stroke="white" stroke-width="1.5" stroke-linecap="round" stroke-linejoin="round"/>
</svg>
