<svg width="20" height="20" viewBox="0 0 20 20" fill="none" xmlns="http://www.w3.org/2000/svg">
<path d="M5.64566 4.59918C5.0541 4.25764 4.29759 4.46028 3.95605 5.05184L2.69272 7.23998C2.35127 7.83141 2.55391 8.58766 3.14533 8.92912C3.96967 9.40505 3.96968 10.5949 3.14534 11.0708C2.55392 11.4123 2.35129 12.1685 2.69274 12.7599L3.95608 14.9481C4.29761 15.5397 5.05412 15.7423 5.64568 15.4008C6.47011 14.9248 7.5008 15.5197 7.5008 16.4716C7.5008 17.1546 8.05447 17.7083 8.73745 17.7083H11.2644C11.9473 17.7083 12.5008 17.1547 12.5008 16.4718C12.5008 15.5202 13.531 14.9253 14.3551 15.4011C14.9464 15.7424 15.7024 15.5399 16.0438 14.9486L17.3074 12.7599C17.6489 12.1685 17.4463 11.4123 16.8549 11.0708C16.0305 10.5949 16.0305 9.40506 16.8549 8.92914C17.4463 8.58769 17.6489 7.83145 17.3075 7.24004L16.0438 5.05135C15.7024 4.46008 14.9464 4.25749 14.3551 4.59886C13.531 5.07468 12.5008 4.47973 12.5008 3.5281C12.5008 2.84527 11.9473 2.29163 11.2644 2.29163L8.73746 2.29163C8.05447 2.29163 7.5008 2.8453 7.5008 3.52829C7.5008 4.48027 6.4701 5.07517 5.64566 4.59918Z" stroke="#344054" stroke-width="1.5" stroke-linecap="round" stroke-linejoin="round"/>
<path d="M12.5709 9.9999C12.5709 11.4197 11.4199 12.5707 10 12.5707C8.5802 12.5707 7.4292 11.4197 7.4292 9.9999C7.4292 8.58006 8.5802 7.42906 10 7.42906C11.4199 7.42906 12.5709 8.58006 12.5709 9.9999Z" stroke="#344054" stroke-width="1.5" stroke-linecap="round" stroke-linejoin="round"/>
</svg>
