<svg width="40" height="40" viewBox="0 0 40 40" fill="none" xmlns="http://www.w3.org/2000/svg">
<circle cx="20" cy="20" r="20" fill="#717BBC"/>
<path d="M13.3335 16.6667H25.4168C26.1072 16.6667 26.6668 17.2264 26.6668 17.9167V25.4167C26.6668 26.1071 26.1072 26.6667 25.4168 26.6667H14.5835C13.8931 26.6667 13.3335 26.1071 13.3335 25.4167V16.6667ZM13.3335 16.6667V14.5834C13.3335 13.893 13.8931 13.3334 14.5835 13.3334H23.3335C24.0239 13.3334 24.5835 13.893 24.5835 14.5834V16.6667M26.6668 20H23.9585C23.2681 20 22.7085 20.5597 22.7085 21.25V22.0834C22.7085 22.7737 23.2681 23.3334 23.9585 23.3334H26.6668" stroke="white" stroke-width="1.5" stroke-linecap="round" stroke-linejoin="round"/>
</svg>
