<svg width="40" height="40" viewBox="0 0 40 40" fill="none" xmlns="http://www.w3.org/2000/svg">
<circle cx="20" cy="20" r="20" fill="#0BA5EC"/>
<path d="M21.7575 14.2534C22.062 14.1182 22.3991 14.043 22.7537 14.043C24.11 14.043 25.2095 15.1425 25.2095 16.4988C25.2095 17.855 24.11 18.9545 22.7537 18.9545C22.3995 18.9545 22.0628 18.8795 21.7586 18.7446M23.1641 21.0173C26.3324 21.2044 27.3508 23.3409 27.6778 24.7422C27.8327 25.4062 27.2853 25.9572 26.6034 25.9572H24.6584M19.7927 16.4988C19.7927 17.8551 18.6932 18.9546 17.3369 18.9546C15.9806 18.9546 14.8811 17.8551 14.8811 16.4988C14.8811 15.1425 15.9806 14.043 17.3369 14.043C18.6932 14.043 19.7927 15.1425 19.7927 16.4988ZM17.2912 21.0041C20.8194 21.0041 21.9188 23.2757 22.261 24.7422C22.4159 25.4063 21.8685 25.9573 21.1866 25.9573H13.3957C12.7138 25.9573 12.1664 25.4063 12.3214 24.7422C12.6635 23.2757 13.763 21.0041 17.2912 21.0041Z" stroke="white" stroke-width="1.5" stroke-linecap="round" stroke-linejoin="round"/>
</svg>
